HIERARCHY
ROOT joint_0
{
	OFFSET 0.000000 0.000000 0.000000
	CHANNELS 6 Xposition Yposition Zposition Zrotation Yrotation Xrotation 
	JOINT joint_1
	{
		OFFSET 14.113007 -2.961990 123.953979
		CHANNELS 3 Zrotation Yrotation Xrotation
		JOINT joint_2
		{
			OFFSET 0.764000 -2.434006 113.871948
			CHANNELS 3 Zrotation Yrotation Xrotation
			JOINT joint_3
			{
				OFFSET 0.186996 -2.169998 113.753052
				CHANNELS 3 Zrotation Yrotation Xrotation
				JOINT joint_4
				{
					OFFSET 16.096001 -2.720001 160.853027
					CHANNELS 3 Zrotation Yrotation Xrotation
					JOINT joint_5
					{
						OFFSET 34.392006 -0.188995 92.567017
						CHANNELS 3 Zrotation Yrotation Xrotation
						End Site
						{
							OFFSET 0.000000 0.000000 0.000000
						}
					}
				}
				JOINT joint_6
				{
					OFFSET 9.183998 -36.684006 89.597046
					CHANNELS 3 Zrotation Yrotation Xrotation
					JOINT joint_7
					{
						OFFSET 0.486000 -164.365997 -28.984009
						CHANNELS 3 Zrotation Yrotation Xrotation
						JOINT joint_8
						{
							OFFSET 38.899002 -34.967010 -291.651978
							CHANNELS 3 Zrotation Yrotation Xrotation
							JOINT joint_9
							{
								OFFSET 41.714005 -45.890991 -258.857056
								CHANNELS 3 Zrotation Yrotation Xrotation
								End Site
								{
									OFFSET 0.000000 0.000000 0.000000
								}
							}
						}
					}
				}
				JOINT joint_10
				{
					OFFSET 8.867004 33.650002 90.817993
					CHANNELS 3 Zrotation Yrotation Xrotation
					JOINT joint_11
					{
						OFFSET 0.018997 164.299999 -29.368042
						CHANNELS 3 Zrotation Yrotation Xrotation
						JOINT joint_12
						{
							OFFSET 29.440994 30.887997 -293.216919
							CHANNELS 3 Zrotation Yrotation Xrotation
							JOINT joint_13
							{
								OFFSET 46.174011 54.490005 -256.422058
								CHANNELS 3 Zrotation Yrotation Xrotation
								End Site
								{
									OFFSET 0.000000 0.000000 0.000000
								}
							}
						}
					}
				}
			}
		}
	}
	JOINT joint_14
	{
		OFFSET -2.264000 -89.466995 -116.150024
		CHANNELS 3 Zrotation Yrotation Xrotation
		JOINT joint_15
		{
			OFFSET -16.400993 -17.452988 -493.781982
			CHANNELS 3 Zrotation Yrotation Xrotation
			JOINT joint_16
			{
				OFFSET -50.497004 -13.404022 -424.754013
				CHANNELS 3 Zrotation Yrotation Xrotation
				JOINT joint_17
				{
					OFFSET 198.546007 -19.341003 -89.309000
					CHANNELS 3 Zrotation Yrotation Xrotation
					End Site
					{
						OFFSET 0.000000 0.000000 0.000000
					}
				}
			}
		}
	}
	JOINT joint_18
	{
		OFFSET -0.867996 96.016006 -110.817993
		CHANNELS 3 Zrotation Yrotation Xrotation
		JOINT joint_19
		{
			OFFSET -10.130997 24.658998 -493.645020
			CHANNELS 3 Zrotation Yrotation Xrotation
			JOINT joint_20
			{
				OFFSET -48.871004 19.434999 -424.714005
				CHANNELS 3 Zrotation Yrotation Xrotation
				JOINT joint_21
				{
					OFFSET 195.579996 24.926001 -94.327003
					CHANNELS 3 Zrotation Yrotation Xrotation
					End Site
					{
						OFFSET 0.000000 0.000000 0.000000
					}
				}
			}
		}
	}
}
MOTION
Frames: 13
Frame Time: 0.016667
-2590.908447 865.990051 1142.795044 3.707572 -5.881743 -1.358565 -1.164471 0.286181 0.842807 -1.172334 -0.038250 -0.302846 -1.170199 0.102788 0.112778 -0.389485 1.844143 1.041477 0.000000 0.000000 0.000000 0.730166 1.519041 -1.091644 -0.153881 1.678551 0.176525 0.103467 -0.803249 -0.240878 0.000000 0.000000 0.000000 0.869982 -0.186361 1.827631 0.519297 -0.250476 0.758286 0.996858 2.487563 2.637145 0.000000 0.000000 0.000000 1.158259 3.440372 -0.237129 1.202791 1.514123 0.480686 1.367163 -2.869674 0.333772 0.000000 0.000000 0.000000 -2.174952 3.058855 1.695466 -2.281354 0.474069 -0.192471 -2.312843 -1.872659 -0.872572 0.000000 0.000000 0.000000 
-2591.175781 866.131165 1142.796997 3.703951 -5.888696 -1.357557 -1.166621 0.296599 0.859154 -1.174830 -0.041287 -0.306727 -1.172593 0.106201 0.115390 -0.388709 1.850287 1.039459 0.000000 0.000000 0.000000 0.736926 1.510934 -1.068383 -0.155556 1.671835 0.154033 0.105388 -0.809796 -0.236129 0.000000 0.000000 0.000000 0.874956 -0.191085 1.787961 0.523247 -0.255210 0.798970 0.997504 2.491165 2.636426 0.000000 0.000000 0.000000 1.162076 3.440200 -0.245617 1.206849 1.501742 0.479764 1.370462 -2.869227 0.335284 0.000000 0.000000 0.000000 -2.173813 3.047102 1.685703 -2.279258 0.484209 -0.193677 -2.311614 -1.875562 -0.871575 0.000000 0.000000 0.000000 
-2591.453613 866.276733 1142.796997 3.699553 -5.896600 -1.355155 -1.167861 0.309992 0.872924 -1.176444 -0.041842 -0.310275 -1.174162 0.108519 0.117507 -0.387709 1.850361 1.036839 0.000000 0.000000 0.000000 0.741403 1.502041 -1.043733 -0.157146 1.663907 0.130214 0.108000 -0.815478 -0.226143 0.000000 0.000000 0.000000 0.876603 -0.194507 1.750627 0.526146 -0.258247 0.839285 0.995503 2.490048 2.626232 0.000000 0.000000 0.000000 1.165817 3.434856 -0.256800 1.210070 1.500586 0.481149 1.373741 -2.871174 0.336550 0.000000 0.000000 0.000000 -2.172922 3.031531 1.673253 -2.276926 0.501722 -0.193162 -2.309997 -1.873419 -0.871032 0.000000 0.000000 0.000000 
-2591.732422 866.426147 1142.795044 3.693678 -5.904746 -1.351689 -1.168843 0.325395 0.884246 -1.177896 -0.043735 -0.312323 -1.175524 0.112021 0.118758 -0.386816 1.847685 1.034498 0.000000 0.000000 0.000000 0.747027 1.492987 -1.018381 -0.158671 1.656007 0.106481 0.110955 -0.821086 -0.213949 0.000000 0.000000 0.000000 0.878535 -0.196792 1.714034 0.528583 -0.260283 0.878941 0.992378 2.487645 2.611189 0.000000 0.000000 0.000000 1.170024 3.426256 -0.269582 1.213303 1.506379 0.483534 1.377508 -2.875861 0.337767 0.000000 0.000000 0.000000 -2.171864 3.014260 1.659040 -2.274210 0.522880 -0.191701 -2.307972 -1.869645 -0.870500 0.000000 0.000000 0.000000 
-2591.988525 866.579468 1142.788940 3.686976 -5.913346 -1.347453 -1.169943 0.338673 0.894138 -1.179401 -0.045085 -0.314105 -1.176952 0.115342 0.120432 -0.385936 1.847098 1.032199 0.000000 0.000000 0.000000 0.751994 1.485251 -0.992932 -0.160410 1.649349 0.083550 0.113358 -0.824955 -0.203258 0.000000 0.000000 0.000000 0.880807 -0.197494 1.674915 0.531410 -0.260707 0.918272 0.989801 2.486634 2.597641 0.000000 0.000000 0.000000 1.174601 3.418763 -0.283250 1.216805 1.514481 0.486815 1.381972 -2.886737 0.338695 0.000000 0.000000 0.000000 -2.169945 3.002409 1.643676 -2.271285 0.537351 -0.190031 -2.305530 -1.867495 -0.869564 0.000000 0.000000 0.000000 
-2592.208740 866.738953 1142.780029 3.679617 -5.922172 -1.342454 -1.171815 0.348928 0.903742 -1.181632 -0.048260 -0.316709 -1.179050 0.120138 0.121608 -0.385655 1.850270 1.031512 0.000000 0.000000 0.000000 0.757502 1.479333 -0.965697 -0.162481 1.644661 0.062219 0.114546 -0.826907 -0.197999 0.000000 0.000000 0.000000 0.885112 -0.196188 1.632211 0.535110 -0.259300 0.957317 0.988801 2.488599 2.589634 0.000000 0.000000 0.000000 1.179408 3.414358 -0.297361 1.220614 1.522800 0.490507 1.387166 -2.906962 0.339045 0.000000 0.000000 0.000000 -2.166897 3.000432 1.627283 -2.268492 0.537425 -0.188443 -2.302679 -1.866707 -0.868263 0.000000 0.000000 0.000000 
-2592.405273 866.901611 1142.766968 3.671444 -5.931493 -1.336358 -1.174259 0.357433 0.911219 -1.184408 -0.052010 -0.319086 -1.181678 0.125383 0.123474 -0.385449 1.856053 1.031036 0.000000 0.000000 0.000000 0.764219 1.474671 -0.938453 -0.164741 1.641480 0.042237 0.115088 -0.827232 -0.194949 0.000000 0.000000 0.000000 0.891783 -0.193355 1.586761 0.539330 -0.256677 0.996127 0.988700 2.493061 2.583815 0.000000 0.000000 0.000000 1.184582 3.411225 -0.312665 1.224694 1.533334 0.494951 1.393021 -2.932949 0.339132 0.000000 0.000000 0.000000 -2.163255 3.004051 1.609401 -2.265778 0.530825 -0.186510 -2.299663 -1.867448 -0.866691 0.000000 0.000000 0.000000 
-2592.598145 867.058044 1142.750977 3.665320 -5.941429 -1.330316 -1.176956 0.365302 0.918014 -1.187382 -0.054038 -0.321404 -1.184562 0.128732 0.124139 -0.385154 1.859876 1.030303 0.000000 0.000000 0.000000 0.768809 1.470405 -0.909653 -0.167238 1.638356 0.021613 0.115213 -0.824988 -0.191667 0.000000 0.000000 0.000000 0.896735 -0.190345 1.541493 0.543902 -0.253513 1.035593 0.989068 2.499780 2.578016 0.000000 0.000000 0.000000 1.188878 3.406622 -0.328135 1.227655 1.548065 0.500162 1.397903 -2.955169 0.339147 0.000000 0.000000 0.000000 -2.160195 3.005857 1.591662 -2.263285 0.529580 -0.184439 -2.297284 -1.871907 -0.864951 0.000000 0.000000 0.000000 
-2592.796875 867.202454 1142.729980 3.661120 -5.952002 -1.324042 -1.179057 0.372903 0.921336 -1.189762 -0.055831 -0.322020 -1.186853 0.132214 0.125049 -0.384780 1.858799 1.029329 0.000000 0.000000 0.000000 0.770299 1.466068 -0.880799 -0.169908 1.634645 0.000706 0.114787 -0.818421 -0.187061 0.000000 0.000000 0.000000 0.896814 -0.188678 1.495404 0.549265 -0.250679 1.076238 0.990877 2.512760 2.572946 0.000000 0.000000 0.000000 1.192183 3.397454 -0.344289 1.229068 1.571250 0.506997 1.401553 -2.970974 0.339230 0.000000 0.000000 0.000000 -2.158414 3.002169 1.574002 -2.261174 0.540785 -0.182063 -2.296193 -1.883771 -0.862885 0.000000 0.000000 0.000000 
-2592.990234 867.341125 1142.704956 3.658419 -5.963426 -1.317581 -1.181037 0.379560 0.923680 -1.191966 -0.055937 -0.322173 -1.189012 0.134563 0.124306 -0.384572 1.856174 1.028775 0.000000 0.000000 0.000000 0.769608 1.462255 -0.850763 -0.172720 1.631093 -0.020100 0.113938 -0.809744 -0.182766 0.000000 0.000000 0.000000 0.894106 -0.187093 1.449908 0.555027 -0.247366 1.117347 0.993302 2.528576 2.568030 0.000000 0.000000 0.000000 1.194598 3.387047 -0.360910 1.229338 1.598898 0.514703 1.404254 -2.983555 0.339198 0.000000 0.000000 0.000000 -2.157060 2.997110 1.556087 -2.259169 0.557376 -0.179290 -2.295610 -1.899509 -0.860569 0.000000 0.000000 0.000000 
-2593.164795 867.475403 1142.680054 3.658005 -5.974715 -1.311419 -1.183810 0.386050 0.926463 -1.194955 -0.056013 -0.322947 -1.191974 0.136098 0.124687 -0.384073 1.853265 1.027445 0.000000 0.000000 0.000000 0.768095 1.459745 -0.822046 -0.175783 1.628740 -0.043297 0.114046 -0.803458 -0.175154 0.000000 0.000000 0.000000 0.894349 -0.184609 1.405170 0.559957 -0.243840 1.157694 0.994101 2.538863 2.560468 0.000000 0.000000 0.000000 1.196210 3.379758 -0.376487 1.229151 1.622320 0.521076 1.406130 -2.994129 0.338993 0.000000 0.000000 0.000000 -2.156527 2.994362 1.538868 -2.258306 0.569686 -0.176314 -2.295566 -1.909389 -0.859262 0.000000 0.000000 0.000000 
-2593.314453 867.604858 1142.656982 3.659774 -5.986275 -1.306088 -1.186776 0.393559 0.931196 -1.198198 -0.057907 -0.324707 -1.195122 0.139938 0.125749 -0.383430 1.848206 1.025721 0.000000 0.000000 0.000000 0.762939 1.458580 -0.794200 -0.178959 1.627099 -0.070313 0.116097 -0.803299 -0.162220 0.000000 0.000000 0.000000 0.895819 -0.181398 1.362120 0.563474 -0.240076 1.196627 0.992211 2.539100 2.549565 0.000000 0.000000 0.000000 1.196947 3.377841 -0.389854 1.228692 1.638824 0.524907 1.407118 -3.002763 0.338582 0.000000 0.000000 0.000000 -2.156532 2.995648 1.523217 -2.258507 0.574979 -0.173432 -2.295663 -1.909206 -0.859308 0.000000 0.000000 0.000000 
-2593.445312 867.730835 1142.634033 3.663544 -5.997590 -1.301049 -1.189893 0.400595 0.936382 -1.201600 -0.060322 -0.325777 -1.198407 0.144438 0.126112 -0.382863 1.842490 1.024193 0.000000 0.000000 0.000000 0.755227 1.458637 -0.767110 -0.182301 1.626250 -0.099689 0.119173 -0.806197 -0.146278 0.000000 0.000000 0.000000 0.897401 -0.177615 1.320276 0.566161 -0.235918 1.235093 0.988597 2.533378 2.535964 0.000000 0.000000 0.000000 1.196796 3.378713 -0.402278 1.227654 1.651527 0.527538 1.407203 -3.009574 0.337946 0.000000 0.000000 0.000000 -2.157148 2.999005 1.507978 -2.259636 0.576185 -0.169892 -2.296054 -1.903191 -0.860241 0.000000 0.000000 0.000000 
